{
  "accessors": [
    {
      "bufferView": 2,
      "componentType": 5126,
      "count": 35,
      "max": [
        1.1735994815826416,
        1.3946468830108643,
        0.88735330104827881
      ],
      "min": [
        -0.88168203830718994,
        -0.66140985488891602,
        -0.80346357822418213
      ],
      "type": "VEC3"
    },
    {
      "bufferView": 2,
      "byteOffset": 420,
      "componentType": 5126,
      "count": 35,
      "max": [
        0.97760069370269775,
        0.98265630006790161,
        0.98479145765304565
      ],
      "min": [
        -0.96256089210510254,
        -0.98114657402038574,
        -0.98328590393066406
      ],
      "type": "VEC3"
    },
    {
      "bufferView": 3,
      "componentType": 5126,
      "count": 35,
      "max": [
        0.97958600521087646,
        0.97462046146392822,
        0.30871880054473877,
        1
      ],
      "min": [
        -0.98596113920211792,
        -0.97899293899536133,
        -0.99328595399856567,
        1
      ],
      "type": "VEC4"
    },
    {
      "bufferView": 1,
      "componentType": 5126,
      "count": 35,
      "max": [
        0.73851954936981201,
        0.67737478017807007
      ],
      "min": [
        0.49074974656105042,
        0.24456369876861572
      ],
      "type": "VEC2"
    },
    {
      "bufferView": 0,
      "componentType": 5125,
      "count": 174,
      "max": [
        34
      ],
      "min": [
        0
      ],
      "type": "SCALAR"
    },
    {
      "bufferView": 2,
      "byteOffset": 840,
      "componentType": 5126,
      "count": 23,
      "max": [
        1.1037938594818115,
        0.7381821870803833,
        1.153586745262146
      ],
      "min": [
        -0.29713323712348938,
        -0.68939399719238281,
        -1.2521700859069824
      ],
      "type": "VEC3"
    },
    {
      "bufferView": 2,
      "byteOffset": 1116,
      "componentType": 5126,
      "count": 23,
      "max": [
        0.97816926240921021,
        0.9701647162437439,
        0.97895026206970215
      ],
      "min": [
        -0.98901206254959106,
        -0.9608275294303894,
        -0.92059564590454102
      ],
      "type": "VEC3"
    },
    {
      "bufferView": 3,
      "byteOffset": 560,
      "componentType": 5126,
      "count": 23,
      "max": [
        0.83600002527236938,
        0.99422967433929443,
        0.98751246929168701,
        1
      ],
      "min": [
        -0.91792541742324829,
        -0.47253665328025818,
        -0.9988822340965271,
        1
      ],
      "type": "VEC4"
    },
    {
      "bufferView": 1,
      "byteOffset": 280,
      "componentType": 5126,
      "count": 23,
      "max": [
        0.99083369970321655,
        0.34636107087135315
      ],
      "min": [
        0.8646543025970459,
        0.12916949391365051
      ],
      "type": "VEC2"
    },
    {
      "bufferView": 0,
      "byteOffset": 696,
      "componentType": 5125,
      "count": 108,
      "max": [
        22
      ],
      "min": [
        0
      ],
      "type": "SCALAR"
    },
    {
      "bufferView": 2,
      "byteOffset": 1392,
      "componentType": 5126,
      "count": 24,
      "max": [
        1.1512616872787476,
        0.81985092163085938,
        1.1123983860015869
      ],
      "min": [
        -0.29342809319496155,
        -0.50591921806335449,
        -1.3219543695449829
      ],
      "type": "VEC3"
    },
    {
      "bufferView": 2,
      "byteOffset": 1680,
      "componentType": 5126,
      "count": 24,
      "max": [
        0.99106913805007935,
        0.89217203855514526,
        0.99793416261672974
      ],
      "min": [
        -0.97068303823471069,
        -0.92984360456466675,
        -0.85671347379684448
      ],
      "type": "VEC3"
    },
    {
      "bufferView": 3,
      "byteOffset": 928,
      "componentType": 5126,
      "count": 24,
      "max": [
        0.97476136684417725,
        0.95315468311309814,
        0.19390739500522614,
        1
      ],
      "min": [
        -0.92032307386398315,
        -0.9388243556022644,
        -0.99866622686386108,
        1
      ],
      "type": "VEC4"
    },
    {
      "bufferView": 1,
      "byteOffset": 464,
      "componentType": 5126,
      "count": 24,
      "max": [
        0.85318535566329956,
        0.36347922682762146
      ],
      "min": [
        0.76338845491409302,
        0.22950299084186554
      ],
      "type": "VEC2"
    },
    {
      "bufferView": 0,
      "byteOffset": 1128,
      "componentType": 5125,
      "count": 108,
      "max": [
        23
      ],
      "min": [
        0
      ],
      "type": "SCALAR"
    },
    {
      "bufferView": 2,
      "byteOffset": 1968,
      "componentType": 5126,
      "count": 49,
      "max": [
        0.44254890084266663,
        0.12987668812274933,
        1.0951359272003174
      ],
      "min": [
        -1.0101032257080078,
        -1.3288146257400513,
        -1.1455962657928467
      ],
      "type": "VEC3"
    },
    {
      "bufferView": 2,
      "byteOffset": 2556,
      "componentType": 5126,
      "count": 49,
      "max": [
        0.96205127239227295,
        0.99789094924926758,
        0.94349581003189087
      ],
      "min": [
        -0.9761614203453064,
        -0.99144440889358521,
        -0.94534122943878174
      ],
      "type": "VEC3"
    },
    {
      "bufferView": 3,
      "byteOffset": 1312,
      "componentType": 5126,
      "count": 49,
      "max": [
        0.95332682132720947,
        0.76985883712768555,
        0.99409687519073486,
        1
      ],
      "min": [
        -0.98400932550430298,
        -0.91238522529602051,
        -0.94814646244049072,
        1
      ],
      "type": "VEC4"
    },
    {
      "bufferView": 1,
      "byteOffset": 656,
      "componentType": 5126,
      "count": 49,
      "max": [
        0.60154569149017334,
        0.3735162615776062
      ],
      "min": [
        0.29990261793136597,
        0
      ],
      "type": "VEC2"
    },
    {
      "bufferView": 0,
      "byteOffset": 1560,
      "componentType": 5125,
      "count": 228,
      "max": [
        48
      ],
      "min": [
        0
      ],
      "type": "SCALAR"
    },
    {
      "bufferView": 2,
      "byteOffset": 3144,
      "componentType": 5126,
      "count": 36,
      "max": [
        0.61437058448791504,
        0.53973394632339478,
        0.79068899154663086
      ],
      "min": [
        -0.61981469392776489,
        -0.806252121925354,
        -0.85256284475326538
      ],
      "type": "VEC3"
    },
    {
      "bufferView": 2,
      "byteOffset": 3576,
      "componentType": 5126,
      "count": 36,
      "max": [
        0.97516500949859619,
        0.96232789754867554,
        0.90515857934951782
      ],
      "min": [
        -0.99026870727539062,
        -0.9767264723777771,
        -0.99845331907272339
      ],
      "type": "VEC3"
    },
    {
      "bufferView": 3,
      "byteOffset": 2096,
      "componentType": 5126,
      "count": 36,
      "max": [
        0.89975601434707642,
        0.6244627833366394,
        0.99056136608123779,
        1
      ],
      "min": [
        -0.99631583690643311,
        -0.97919565439224243,
        -0.85115253925323486,
        1
      ],
      "type": "VEC4"
    },
    {
      "bufferView": 1,
      "byteOffset": 1048,
      "componentType": 5126,
      "count": 36,
      "max": [
        0.45854413509368896,
        0.74175333976745605
      ],
      "min": [
        0.19474196434020996,
        0.32212486863136292
      ],
      "type": "VEC2"
    },
    {
      "bufferView": 0,
      "byteOffset": 2472,
      "componentType": 5125,
      "count": 186,
      "max": [
        35
      ],
      "min": [
        0
      ],
      "type": "SCALAR"
    },
    {
      "bufferView": 2,
      "byteOffset": 4008,
      "componentType": 5126,
      "count": 29,
      "max": [
        0.58744442462921143,
        0.22871612012386322,
        0.48776912689208984
      ],
      "min": [
        -0.44944760203361511,
        -0.57660478353500366,
        -0.90029406547546387
      ],
      "type": "VEC3"
    },
    {
      "bufferView": 2,
      "byteOffset": 4356,
      "componentType": 5126,
      "count": 29,
      "max": [
        0.96107089519500732,
        0.97400730848312378,
        0.96889245510101318
      ],
      "min": [
        -0.97429740428924561,
        -0.98036396503448486,
        -0.95082175731658936
      ],
      "type": "VEC3"
    },
    {
      "bufferView": 3,
      "byteOffset": 2672,
      "componentType": 5126,
      "count": 29,
      "max": [
        0.95644587278366089,
        0.94488382339477539,
        0.92546886205673218,
        1
      ],
      "min": [
        -0.92810821533203125,
        -0.48346984386444092,
        -0.98972469568252563,
        1
      ],
      "type": "VEC4"
    },
    {
      "bufferView": 1,
      "byteOffset": 1336,
      "componentType": 5126,
      "count": 29,
      "max": [
        0.8390839695930481,
        0.27513569593429565
      ],
      "min": [
        0.62706911563873291,
        0
      ],
      "type": "VEC2"
    },
    {
      "bufferView": 0,
      "byteOffset": 3216,
      "componentType": 5125,
      "count": 144,
      "max": [
        28
      ],
      "min": [
        0
      ],
      "type": "SCALAR"
    },
    {
      "bufferView": 2,
      "byteOffset": 4704,
      "componentType": 5126,
      "count": 26,
      "max": [
        0.60336500406265259,
        0.56862956285476685,
        1.1083886623382568
      ],
      "min": [
        -0.37811312079429626,
        -0.59533166885375977,
        -0.87274622917175293
      ],
      "type": "VEC3"
    },
    {
      "bufferView": 2,
      "byteOffset": 5016,
      "componentType": 5126,
      "count": 26,
      "max": [
        0.98983103036880493,
        0.88729274272918701,
        0.90296649932861328
      ],
      "min": [
        -0.98559856414794922,
        -0.99532055854797363,
        -0.98969906568527222
      ],
      "type": "VEC3"
    },
    {
      "bufferView": 3,
      "byteOffset": 3136,
      "componentType": 5126,
      "count": 26,
      "max": [
        0.99907207489013672,
        0.89672046899795532,
        0.79395771026611328,
        1
      ],
      "min": [
        -0.99191182851791382,
        -0.98092377185821533,
        -0.90044361352920532,
        1
      ],
      "type": "VEC4"
    },
    {
      "bufferView": 1,
      "byteOffset": 1568,
      "componentType": 5126,
      "count": 26,
      "max": [
        0.97797101736068726,
        0.22942760586738586
      ],
      "min": [
        0.84128528833389282,
        0
      ],
      "type": "VEC2"
    },
    {
      "bufferView": 0,
      "byteOffset": 3792,
      "componentType": 5125,
      "count": 108,
      "max": [
        25
      ],
      "min": [
        0
      ],
      "type": "SCALAR"
    },
    {
      "bufferView": 2,
      "byteOffset": 5328,
      "componentType": 5126,
      "count": 35,
      "max": [
        0.97806161642074585,
        0.8364403247833252,
        2.0087447166442871
      ],
      "min": [
        -0.79704070091247559,
        -1.4858801364898682,
        -1.0031205415725708
      ],
      "type": "VEC3"
    },
    {
      "bufferView": 2,
      "byteOffset": 5748,
      "componentType": 5126,
      "count": 35,
      "max": [
        0.94589632749557495,
        0.99222511053085327,
        0.93351221084594727
      ],
      "min": [
        -0.97010356187820435,
        -0.99236339330673218,
        -0.92644202709197998
      ],
      "type": "VEC3"
    },
    {
      "bufferView": 3,
      "byteOffset": 3552,
      "componentType": 5126,
      "count": 35,
      "max": [
        0.90523958206176758,
        0.98159503936767578,
        0.35459566116333008,
        1
      ],
      "min": [
        -0.92606467008590698,
        -0.97691184282302856,
        -0.98944491147994995,
        -1
      ],
      "type": "VEC4"
    },
    {
      "bufferView": 1,
      "byteOffset": 1776,
      "componentType": 5126,
      "count": 35,
      "max": [
        1,
        0.74054688215255737
      ],
      "min": [
        0.70886075496673584,
        0.37704795598983765
      ],
      "type": "VEC2"
    },
    {
      "bufferView": 0,
      "byteOffset": 4224,
      "componentType": 5125,
      "count": 180,
      "max": [
        34
      ],
      "min": [
        0
      ],
      "type": "SCALAR"
    },
    {
      "bufferView": 2,
      "byteOffset": 6168,
      "componentType": 5126,
      "count": 35,
      "max": [
        1.027061939239502,
        0.94844430685043335,
        1.4138940572738647
      ],
      "min": [
        -0.97035175561904907,
        -1.2291253805160522,
        -1.1445808410644531
      ],
      "type": "VEC3"
    },
    {
      "bufferView": 2,
      "byteOffset": 6588,
      "componentType": 5126,
      "count": 35,
      "max": [
        0.99695062637329102,
        0.9488602876663208,
        0.97428125143051147
      ],
      "min": [
        -0.9960024356842041,
        -0.87342649698257446,
        -0.92222863435745239
      ],
      "type": "VEC3"
    },
    {
      "bufferView": 3,
      "byteOffset": 4112,
      "componentType": 5126,
      "count": 35,
      "max": [
        0.99746948480606079,
        0.98331338167190552,
        0.82085317373275757,
        1
      ],
      "min": [
        -0.69482225179672241,
        -0.99225479364395142,
        -0.9655754566192627,
        1
      ],
      "type": "VEC4"
    },
    {
      "bufferView": 1,
      "byteOffset": 2056,
      "componentType": 5126,
      "count": 35,
      "max": [
        0.29803752899169922,
        0.44066023826599121
      ],
      "min": [
        0,
        0
      ],
      "type": "VEC2"
    },
    {
      "bufferView": 0,
      "byteOffset": 4944,
      "componentType": 5125,
      "count": 156,
      "max": [
        34
      ],
      "min": [
        0
      ],
      "type": "SCALAR"
    }
  ],
  "asset": {
    "extras": {
      "author": "VladNeko (https://sketchfab.com/vlad.neko)",
      "license": "CC-BY-4.0 (http://creativecommons.org/licenses/by/4.0/)",
      "source": "https://sketchfab.com/3d-models/ruined-rock-fence-75e2716c378e4a68bac3577303671921",
      "title": "Ruined rock fence"
    },
    "generator": "Sketchfab-7.91.0",
    "version": "2.0"
  },
  "bufferViews": [
    {
      "buffer": 0,
      "byteLength": 5568,
      "byteOffset": 0,
      "name": "floatBufferViews",
      "target": 34963
    },
    {
      "buffer": 0,
      "byteLength": 2336,
      "byteOffset": 5568,
      "byteStride": 8,
      "name": "floatBufferViews",
      "target": 34962
    },
    {
      "buffer": 0,
      "byteLength": 7008,
      "byteOffset": 7904,
      "byteStride": 12,
      "name": "floatBufferViews",
      "target": 34962
    },
    {
      "buffer": 0,
      "byteLength": 4672,
      "byteOffset": 14912,
      "byteStride": 16,
      "name": "floatBufferViews",
      "target": 34962
    }
  ],
  "buffers": [
    {
      "byteLength": 19584,
      "uri": "scene.bin"
    }
  ],
  "images": [
    {
      "uri": "textures/rock_baseColor.png"
    },
    {
      "uri": "textures/rock_normal.png"
    }
  ],
  "materials": [
    {
      "doubleSided": true,
      "emissiveFactor": [
        0,
        0,
        0
      ],
      "name": "rock",
      "normalTexture": {
        "index": 1,
        "scale": 1,
        "texCoord": 0
      },
      "pbrMetallicRoughness": {
        "baseColorFactor": [
          1,
          1,
          1,
          1
        ],
        "baseColorTexture": {
          "index": 0,
          "texCoord": 0
        },
        "metallicFactor": 0,
        "roughnessFactor": 0.82111456180001685
      }
    }
  ],
  "meshes": [
    {
      "name": "1_lp_rock_0",
      "primitives": [
        {
          "attributes": {
            "NORMAL": 1,
            "POSITION": 0,
            "TANGENT": 2,
            "TEXCOORD_0": 3
          },
          "indices": 4,
          "material": 0,
          "mode": 4
        }
      ]
    },
    {
      "name": "2_lp_rock_0",
      "primitives": [
        {
          "attributes": {
            "NORMAL": 6,
            "POSITION": 5,
            "TANGENT": 7,
            "TEXCOORD_0": 8
          },
          "indices": 9,
          "material": 0,
          "mode": 4
        }
      ]
    },
    {
      "name": "3_lp_rock_0",
      "primitives": [
        {
          "attributes": {
            "NORMAL": 11,
            "POSITION": 10,
            "TANGENT": 12,
            "TEXCOORD_0": 13
          },
          "indices": 14,
          "material": 0,
          "mode": 4
        }
      ]
    },
    {
      "name": "4_lp_rock_0",
      "primitives": [
        {
          "attributes": {
            "NORMAL": 16,
            "POSITION": 15,
            "TANGENT": 17,
            "TEXCOORD_0": 18
          },
          "indices": 19,
          "material": 0,
          "mode": 4
        }
      ]
    },
    {
      "name": "5_lp_rock_0",
      "primitives": [
        {
          "attributes": {
            "NORMAL": 21,
            "POSITION": 20,
            "TANGENT": 22,
            "TEXCOORD_0": 23
          },
          "indices": 24,
          "material": 0,
          "mode": 4
        }
      ]
    },
    {
      "name": "6_lp_rock_0",
      "primitives": [
        {
          "attributes": {
            "NORMAL": 26,
            "POSITION": 25,
            "TANGENT": 27,
            "TEXCOORD_0": 28
          },
          "indices": 29,
          "material": 0,
          "mode": 4
        }
      ]
    },
    {
      "name": "7_lp_rock_0",
      "primitives": [
        {
          "attributes": {
            "NORMAL": 31,
            "POSITION": 30,
            "TANGENT": 32,
            "TEXCOORD_0": 33
          },
          "indices": 34,
          "material": 0,
          "mode": 4
        }
      ]
    },
    {
      "name": "8_lp_rock_0",
      "primitives": [
        {
          "attributes": {
            "NORMAL": 36,
            "POSITION": 35,
            "TANGENT": 37,
            "TEXCOORD_0": 38
          },
          "indices": 39,
          "material": 0,
          "mode": 4
        }
      ]
    },
    {
      "name": "9_lp_rock_0",
      "primitives": [
        {
          "attributes": {
            "NORMAL": 41,
            "POSITION": 40,
            "TANGENT": 42,
            "TEXCOORD_0": 43
          },
          "indices": 44,
          "material": 0,
          "mode": 4
        }
      ]
    }
  ],
  "nodes": [
    {
      "children": [
        1
      ],
      "name": "RootNode (gltf orientation matrix)",
      "rotation": [
        -0.70710678118654746,
        -0,
        -0,
        0.70710678118654757
      ]
    },
    {
      "children": [
        2
      ],
      "name": "RootNode (model correction matrix)"
    },
    {
      "children": [
        3
      ],
      "matrix": [
        1,
        0,
        0,
        0,
        0,
        0,
        1,
        0,
        0,
        -1,
        0,
        0,
        0,
        0,
        0,
        1
      ],
      "name": "stone_fence_old_low.fbx"
    },
    {
      "children": [
        4,
        6,
        8,
        10,
        12,
        14,
        16,
        18,
        20
      ],
      "name": "RootNode"
    },
    {
      "children": [
        5
      ],
      "matrix": [
        24.597558199905691,
        65.569376647151103,
        13.945310857590608,
        0,
        -21.240609623824231,
        -6.4657428659319898,
        67.866673634476157,
        0,
        63.581847658109972,
        -27.526455156889192,
        17.277084044630058,
        0,
        111.04551696777344,
        24.202602386474609,
        0,
        1
      ],
      "name": "1_lp"
    },
    {
      "mesh": 0,
      "name": "1_lp_rock_0"
    },
    {
      "children": [
        7
      ],
      "matrix": [
        -35.579981790247942,
        -7.5613961984014688,
        7.5599856197216653,
        0,
        -9.3924401114922365,
        34.655267478145987,
        -9.5424308983943522,
        0,
        -5.1098133656318128,
        -11.049942061499372,
        -35.100603327191642,
        0,
        68.6961669921875,
        100.31636047363281,
        12.641888618469238,
        1
      ],
      "name": "2_lp"
    },
    {
      "mesh": 1,
      "name": "2_lp_rock_0"
    },
    {
      "children": [
        9
      ],
      "matrix": [
        -12.902276414102133,
        -1.5200897704320349,
        22.407487236775456,
        0,
        -5.359599804764513,
        25.303640632199841,
        -1.3695079928453535,
        0,
        -21.810112234593284,
        -5.318852189984427,
        -12.919129504295414,
        0,
        10.664973258972168,
        93.706001281738281,
        -28.441619873046875,
        1
      ],
      "name": "3_lp"
    },
    {
      "mesh": 2,
      "name": "3_lp_rock_0"
    },
    {
      "children": [
        11
      ],
      "matrix": [
        5.7981337326118396,
        65.079614826782461,
        -21.757483561098454,
        0,
        -10.24096660703656,
        22.411149447424908,
        64.30571237689702,
        0,
        67.851793760539508,
        -2.1786954347638239,
        11.56499159451527,
        0,
        -15.162221908569336,
        147.11154174804688,
        38.132648468017578,
        1
      ],
      "name": "4_lp"
    },
    {
      "mesh": 3,
      "name": "4_lp_rock_0"
    },
    {
      "children": [
        13
      ],
      "matrix": [
        -31.811627384742856,
        63.35247326149598,
        70.530025484085243,
        0,
        9.7279824821487342,
        76.183285041046929,
        -64.042746952184999,
        0,
        -94.304754492874252,
        -13.511891503636008,
        -30.39806026760068,
        0,
        0,
        46.332298278808594,
        0,
        1
      ],
      "name": "5_lp"
    },
    {
      "mesh": 4,
      "name": "5_lp_rock_0"
    },
    {
      "children": [
        15
      ],
      "matrix": [
        -88.514899796521206,
        42.300518045064223,
        -19.385011919805741,
        0,
        44.266952925226605,
        89.389239424206735,
        -7.0711211188619894,
        0,
        14.33699275870778,
        -14.840148741727727,
        -97.84793865013873,
        0,
        -82.742607116699219,
        33.140911102294922,
        -9.6940975189208984,
        1
      ],
      "name": "6_lp"
    },
    {
      "mesh": 5,
      "name": "6_lp_rock_0"
    },
    {
      "children": [
        17
      ],
      "matrix": [
        48.003005564397242,
        -10.232549211813179,
        -20.688532624589666,
        0,
        -14.249999672590379,
        -53.301461132301299,
        -6.7009580618308409,
        0,
        -13.856002886121717,
        8.2597543536170743,
        -36.234958764193578,
        0,
        -76.58233642578125,
        69.988372802734375,
        0,
        1
      ],
      "name": "7_lp"
    },
    {
      "mesh": 6,
      "name": "7_lp_rock_0"
    },
    {
      "children": [
        19
      ],
      "matrix": [
        6.3909932091014223,
        -49.026236708065532,
        -37.99883544300635,
        0,
        -8.5264396998460228,
        37.143009758060884,
        -49.356102227953649,
        0,
        61.439260615466289,
        10.25441868027772,
        -2.8968693085963131,
        0,
        -205.12042236328125,
        101.99842834472656,
        4.1753535270690918,
        1
      ],
      "name": "8_lp"
    },
    {
      "mesh": 7,
      "name": "8_lp_rock_0"
    },
    {
      "children": [
        21
      ],
      "matrix": [
        -1.2471288359533217,
        -49.026221976242716,
        -38.512366888850615,
        0,
        -18.115393467806349,
        37.1430251097024,
        -46.696427916761515,
        0,
        59.654043691537055,
        10.254433506989168,
        -14.98563858951727,
        0,
        -205.13853454589844,
        32.487274169921875,
        12.734033584594727,
        1
      ],
      "name": "9_lp"
    },
    {
      "mesh": 8,
      "name": "9_lp_rock_0"
    }
  ],
  "samplers": [
    {
      "magFilter": 9729,
      "minFilter": 9987,
      "wrapS": 10497,
      "wrapT": 10497
    }
  ],
  "scene": 0,
  "scenes": [
    {
      "name": "OSG_Scene",
      "nodes": [
        0
      ]
    }
  ],
  "textures": [
    {
      "sampler": 0,
      "source": 0
    },
    {
      "sampler": 0,
      "source": 1
    }
  ]
}

