{
  "accessors": [
    {
      "bufferView": 3,
      "componentType": 5126,
      "count": 2786,
      "max": [
        1.4713538885116577,
        1.0315169095993042,
        -1.2995574474334717
      ],
      "min": [
        0.074570775032043457,
        -0.089437514543533325,
        -2.813657283782959
      ],
      "type": "VEC3"
    },
    {
      "bufferView": 3,
      "byteOffset": 33432,
      "componentType": 5126,
      "count": 2786,
      "max": [
        0.99841135740280151,
        0.99613535404205322,
        0.99951237440109253
      ],
      "min": [
        -0.99269533157348633,
        -0.99918752908706665,
        -0.99815881252288818
      ],
      "type": "VEC3"
    },
    {
      "bufferView": 4,
      "componentType": 5126,
      "count": 2786,
      "max": [
        0.99831527471542358,
        0.99192166328430176,
        0.99506634473800659,
        1
      ],
      "min": [
        -0.99999397993087769,
        -0.9980543851852417,
        -0.99345952272415161,
        -1
      ],
      "type": "VEC4"
    },
    {
      "bufferView": 2,
      "componentType": 5126,
      "count": 2786,
      "max": [
        0.9896777868270874,
        0.98878616094589233
      ],
      "min": [
        0.0033842325210571289,
        0.0077017843723297119
      ],
      "type": "VEC2"
    },
    {
      "bufferView": 1,
      "componentType": 5125,
      "count": 4302,
      "max": [
        2785
      ],
      "min": [
        0
      ],
      "type": "SCALAR"
    },
    {
      "bufferView": 3,
      "byteOffset": 66864,
      "componentType": 5126,
      "count": 18,
      "max": [
        0.50000011920928955,
        0,
        -0.0023848563432693481
      ],
      "min": [
        -0.50000011920928955,
        -0.054475352168083191,
        -0.5509185791015625
      ],
      "type": "VEC3"
    },
    {
      "bufferView": 3,
      "byteOffset": 67080,
      "componentType": 5126,
      "count": 18,
      "max": [
        0.073868632316589355,
        0.99999547004699707,
        -2.9732680206784323e-10
      ],
      "min": [
        -0.29489755630493164,
        0.95552897453308105,
        -6.2652240728766628e-08
      ],
      "type": "VEC3"
    },
    {
      "bufferView": 4,
      "byteOffset": 44576,
      "componentType": 5126,
      "count": 18,
      "max": [
        -0.00085607724031433463,
        6.3546103774569929e-05,
        -0.99999958276748657,
        1
      ],
      "min": [
        -0.00085929711349308491,
        -0.00026479994994588196,
        -0.99999970197677612,
        1
      ],
      "type": "VEC4"
    },
    {
      "bufferView": 2,
      "byteOffset": 22288,
      "componentType": 5126,
      "count": 18,
      "max": [
        0.74251389503479004,
        0.96933400630950928
      ],
      "min": [
        0.27520322799682617,
        0.026407122611999512
      ],
      "type": "VEC2"
    },
    {
      "bufferView": 1,
      "byteOffset": 17208,
      "componentType": 5125,
      "count": 48,
      "max": [
        17
      ],
      "min": [
        0
      ],
      "type": "SCALAR"
    },
    {
      "bufferView": 5,
      "componentType": 5126,
      "count": 4,
      "max": [
        1,
        0,
        0.49781191349029541,
        0,
        0.042501218616962433,
        1,
        0.0023514898493885994,
        0,
        0.98009127378463745,
        0.019120162352919579,
        1,
        0,
        1.8604919910430908,
        0,
        1.7951784133911133,
        1
      ],
      "min": [
        -0.19680494070053101,
        -0.038030285388231277,
        -0.97970479726791382,
        0,
        -0.026247842237353325,
        0.99909365177154541,
        -0.042406853288412094,
        0,
        -0.49745014309883118,
        0,
        -0.19762477278709412,
        0,
        -1.7586157321929932,
        -0.81287801265716553,
        0,
        1
      ],
      "type": "MAT4"
    },
    {
      "bufferView": 0,
      "componentType": 5123,
      "count": 2786,
      "max": [
        3,
        3,
        3,
        1
      ],
      "min": [
        1,
        1,
        1,
        1
      ],
      "type": "VEC4"
    },
    {
      "bufferView": 4,
      "byteOffset": 44864,
      "componentType": 5126,
      "count": 2786,
      "max": [
        1,
        0.48725497722625732,
        0.30449828505516052,
        0
      ],
      "min": [
        0.36281749606132507,
        0,
        0,
        0
      ],
      "type": "VEC4"
    },
    {
      "bufferView": 6,
      "componentType": 5126,
      "count": 49,
      "max": [
        5.875
      ],
      "min": [
        0
      ],
      "type": "SCALAR"
    },
    {
      "bufferView": 7,
      "componentType": 5126,
      "count": 49,
      "max": [
        0.3580029308795929,
        -0.20774857699871063,
        -0.066757030785083771
      ],
      "min": [
        0.088787727057933807,
        -0.38794636726379395,
        -0.26098820567131042
      ],
      "type": "VEC3"
    },
    {
      "bufferView": 6,
      "byteOffset": 196,
      "componentType": 5126,
      "count": 49,
      "max": [
        5.875
      ],
      "min": [
        0
      ],
      "type": "SCALAR"
    },
    {
      "bufferView": 7,
      "byteOffset": 588,
      "componentType": 5126,
      "count": 49,
      "max": [
        2.4341244697570801,
        1.2616790533065796,
        3.024822473526001
      ],
      "min": [
        1,
        1,
        1
      ],
      "type": "VEC3"
    },
    {
      "bufferView": 6,
      "byteOffset": 392,
      "componentType": 5126,
      "count": 72,
      "max": [
        5.875
      ],
      "min": [
        0
      ],
      "type": "SCALAR"
    },
    {
      "bufferView": 8,
      "componentType": 5126,
      "count": 72,
      "max": [
        8.1048625490713546e-17,
        0.910819411277771,
        8.1048625490713546e-17,
        0.41280508041381836
      ],
      "min": [
        -8.1048625490713546e-17,
        0.910819411277771,
        -8.1048625490713546e-17,
        0.41280508041381836
      ],
      "type": "VEC4"
    },
    {
      "bufferView": 6,
      "byteOffset": 680,
      "componentType": 5126,
      "count": 30,
      "max": [
        5.875
      ],
      "min": [
        0
      ],
      "type": "SCALAR"
    },
    {
      "bufferView": 7,
      "byteOffset": 1176,
      "componentType": 5126,
      "count": 30,
      "max": [
        0.7089269757270813,
        0.50788968801498413,
        0.013887702487409115
      ],
      "min": [
        0.7036358118057251,
        0.50537824630737305,
        0.00015604139480274171
      ],
      "type": "VEC3"
    },
    {
      "bufferView": 6,
      "byteOffset": 800,
      "componentType": 5126,
      "count": 30,
      "max": [
        5.875
      ],
      "min": [
        0
      ],
      "type": "SCALAR"
    },
    {
      "bufferView": 8,
      "byteOffset": 1152,
      "componentType": 5126,
      "count": 30,
      "max": [
        -1.2523689215957241e-18,
        -0.36674767732620239,
        1.2523689215957241e-18,
        0.93032044172286987
      ],
      "min": [
        -1.3930513954419812e-17,
        -0.57980245351791382,
        -1.5488463970410362e-17,
        0.81475704908370972
      ],
      "type": "VEC4"
    }
  ],
  "animations": [
    {
      "channels": [
        {
          "sampler": 0,
          "target": {
            "node": 11,
            "path": "translation"
          }
        },
        {
          "sampler": 1,
          "target": {
            "node": 11,
            "path": "scale"
          }
        },
        {
          "sampler": 2,
          "target": {
            "node": 11,
            "path": "rotation"
          }
        },
        {
          "sampler": 3,
          "target": {
            "node": 10,
            "path": "translation"
          }
        },
        {
          "sampler": 4,
          "target": {
            "node": 10,
            "path": "rotation"
          }
        }
      ],
      "name": "Take 001",
      "samplers": [
        {
          "input": 13,
          "interpolation": "LINEAR",
          "output": 14
        },
        {
          "input": 15,
          "interpolation": "LINEAR",
          "output": 16
        },
        {
          "input": 17,
          "interpolation": "LINEAR",
          "output": 18
        },
        {
          "input": 19,
          "interpolation": "LINEAR",
          "output": 20
        },
        {
          "input": 21,
          "interpolation": "LINEAR",
          "output": 22
        }
      ]
    }
  ],
  "asset": {
    "extras": {
      "author": "Eques_inferno (https://sketchfab.com/Eques_inferno)",
      "license": "CC-BY-4.0 (http://creativecommons.org/licenses/by/4.0/)",
      "source": "https://sketchfab.com/3d-models/frog-on-leaf-82ed448cc94041418a630a2b5c6a6ae8",
      "title": "Frog on leaf"
    },
    "generator": "Sketchfab-6.71.0",
    "version": "2.0"
  },
  "bufferViews": [
    {
      "buffer": 0,
      "byteLength": 22288,
      "byteOffset": 0,
      "byteStride": 8,
      "name": "shortBufferViews",
      "target": 34962
    },
    {
      "buffer": 0,
      "byteLength": 17400,
      "byteOffset": 22288,
      "name": "floatBufferViews",
      "target": 34963
    },
    {
      "buffer": 0,
      "byteLength": 22432,
      "byteOffset": 39688,
      "byteStride": 8,
      "name": "floatBufferViews",
      "target": 34962
    },
    {
      "buffer": 0,
      "byteLength": 67296,
      "byteOffset": 62120,
      "byteStride": 12,
      "name": "floatBufferViews",
      "target": 34962
    },
    {
      "buffer": 0,
      "byteLength": 89440,
      "byteOffset": 129416,
      "byteStride": 16,
      "name": "floatBufferViews",
      "target": 34962
    },
    {
      "buffer": 0,
      "byteLength": 256,
      "byteOffset": 218856,
      "byteStride": 64,
      "name": "floatBufferViews"
    },
    {
      "buffer": 0,
      "byteLength": 920,
      "byteOffset": 219112,
      "name": "floatBufferViews"
    },
    {
      "buffer": 0,
      "byteLength": 1536,
      "byteOffset": 220032,
      "byteStride": 12,
      "name": "floatBufferViews"
    },
    {
      "buffer": 0,
      "byteLength": 1632,
      "byteOffset": 221568,
      "byteStride": 16,
      "name": "floatBufferViews"
    }
  ],
  "buffers": [
    {
      "byteLength": 223200,
      "uri": "scene.bin"
    }
  ],
  "images": [
    {
      "uri": "textures/lambert2_baseColor.png"
    },
    {
      "uri": "textures/lambert2_metallicRoughness.png"
    },
    {
      "uri": "textures/lambert2_normal.png"
    },
    {
      "uri": "textures/lambert1_baseColor.png"
    },
    {
      "uri": "textures/lambert1_metallicRoughness.png"
    },
    {
      "uri": "textures/lambert1_normal.png"
    }
  ],
  "materials": [
    {
      "doubleSided": true,
      "name": "lambert2",
      "normalTexture": {
        "index": 2,
        "scale": 1,
        "texCoord": 0
      },
      "pbrMetallicRoughness": {
        "baseColorFactor": [
          1,
          1,
          1,
          1
        ],
        "baseColorTexture": {
          "index": 0,
          "texCoord": 0
        },
        "metallicFactor": 1,
        "metallicRoughnessTexture": {
          "index": 1,
          "texCoord": 0
        },
        "roughnessFactor": 1
      }
    },
    {
      "alphaMode": "BLEND",
      "doubleSided": true,
      "emissiveFactor": [
        0,
        0,
        0
      ],
      "name": "lambert1",
      "normalTexture": {
        "index": 5,
        "scale": 1,
        "texCoord": 0
      },
      "pbrMetallicRoughness": {
        "baseColorFactor": [
          1,
          1,
          1,
          1
        ],
        "baseColorTexture": {
          "index": 3,
          "texCoord": 0
        },
        "metallicFactor": 1,
        "metallicRoughnessTexture": {
          "index": 4,
          "texCoord": 0
        },
        "roughnessFactor": 0.72122713409999994
      }
    }
  ],
  "meshes": [
    {
      "name": "FrogUv:polySurface1_lambert2_0",
      "primitives": [
        {
          "attributes": {
            "JOINTS_0": 11,
            "NORMAL": 1,
            "POSITION": 0,
            "TANGENT": 2,
            "TEXCOORD_0": 3,
            "WEIGHTS_0": 12
          },
          "indices": 4,
          "material": 0,
          "mode": 4
        }
      ]
    },
    {
      "name": "pPlane1_lambert1_0",
      "primitives": [
        {
          "attributes": {
            "NORMAL": 6,
            "POSITION": 5,
            "TANGENT": 7,
            "TEXCOORD_0": 8
          },
          "indices": 9,
          "material": 1,
          "mode": 4
        }
      ]
    }
  ],
  "nodes": [
    {
      "children": [
        1
      ],
      "name": "RootNode (gltf orientation matrix)",
      "rotation": [
        -0.70710678118654746,
        -0,
        -0,
        0.70710678118654757
      ]
    },
    {
      "children": [
        2
      ],
      "matrix": [
        0.89599317312240601,
        -0.41842523217201233,
        0.14871633052825928,
        0,
        0.39003875851631165,
        0.90163266658782959,
        0.18689121305942535,
        0,
        -0.21228750050067902,
        -0.10944811999797821,
        0.97105878591537476,
        0,
        -0.56208258867263794,
        0.20239080488681793,
        -0.29640287160873413,
        1
      ],
      "name": "RootNode (model correction matrix)"
    },
    {
      "children": [
        3
      ],
      "matrix": [
        1,
        0,
        0,
        0,
        0,
        0,
        1,
        0,
        0,
        -1,
        0,
        0,
        0,
        0,
        0,
        1
      ],
      "name": "635c93a6db00461284e7d74e212a109c.fbx"
    },
    {
      "children": [
        4
      ],
      "name": ""
    },
    {
      "children": [
        5
      ],
      "name": "RootNode"
    },
    {
      "children": [
        6,
        8,
        7,
        12,
        14
      ],
      "name": ""
    },
    {
      "children": [
        9
      ],
      "name": "_rootJoint"
    },
    {
      "matrix": [
        0.39973547034303597,
        0.004289171346827947,
        -0.23920768463334205,
        0,
        -0.028732138506488435,
        -0.46155507418972525,
        -0.056289762261146063,
        0,
        -0.23751458396345021,
        0.063052962878281382,
        -0.39577557517587453,
        0,
        0.92116198987211795,
        0.58658788169573484,
        -1.8699904846345299,
        1
      ],
      "name": ""
    },
    {
      "mesh": 0,
      "name": "",
      "skin": 0
    },
    {
      "children": [
        10
      ],
      "name": "joint1_00",
      "rotation": [
        -0.0069815646857023239,
        0.89510041475296021,
        -0.017525764182209969,
        -0.44546529650688171
      ],
      "translation": [
        0.68686491250991821,
        0.37129673361778259,
        -1.9597640037536621
      ]
    },
    {
      "children": [
        11
      ],
      "name": "joint2_01",
      "rotation": [
        9.8834244468438795e-18,
        -0.37763899564743042,
        3.5624762331346967e-18,
        0.92595303058624268
      ],
      "translation": [
        0.70867139101028442,
        0.50549954175949097,
        0.00081920652883127332
      ]
    },
    {
      "name": "joint3_02",
      "rotation": [
        -8.1048625490713546e-17,
        0.910819411277771,
        8.1048625490713546e-17,
        0.41280508041381836
      ],
      "translation": [
        0.088787727057933807,
        -0.20774857699871063,
        -0.066757030785083771
      ]
    },
    {
      "children": [
        13
      ],
      "name": "pPlane1",
      "scale": [
        5.9409327507019043,
        5.9409327507019043,
        5.9409327507019043
      ]
    },
    {
      "mesh": 1,
      "name": "pPlane1_lambert1_0"
    },
    {
      "name": "FrogUv:polySurface1",
      "rotation": [
        0.96155709028244019,
        -0.013641493394970894,
        -0.26605620980262756,
        -0.066604554653167725
      ],
      "scale": [
        0.4658617377281189,
        0.4658617377281189,
        0.4658617377281189
      ],
      "translation": [
        0.92116200923919678,
        0.58658790588378906,
        -1.8699904680252075
      ]
    }
  ],
  "samplers": [
    {
      "magFilter": 9729,
      "minFilter": 9987,
      "wrapS": 10497,
      "wrapT": 10497
    }
  ],
  "scene": 0,
  "scenes": [
    {
      "name": "OSG_Scene",
      "nodes": [
        0
      ]
    }
  ],
  "skins": [
    {
      "inverseBindMatrices": 10,
      "joints": [
        6,
        9,
        10,
        11
      ],
      "skeleton": 6
    }
  ],
  "textures": [
    {
      "sampler": 0,
      "source": 0
    },
    {
      "sampler": 0,
      "source": 1
    },
    {
      "sampler": 0,
      "source": 2
    },
    {
      "sampler": 0,
      "source": 3
    },
    {
      "sampler": 0,
      "source": 4
    },
    {
      "sampler": 0,
      "source": 5
    }
  ]
}

