{
  "accessors": [
    {
      "bufferView": 2,
      "componentType": 5126,
      "count": 200,
      "max": [
        0.53104925155639648,
        3.1674966812133789,
        1.089991569519043
      ],
      "min": [
        -4.0444707870483398,
        -1.283027172088623,
        0
      ],
      "type": "VEC3"
    },
    {
      "bufferView": 2,
      "byteOffset": 2400,
      "componentType": 5126,
      "count": 200,
      "max": [
        0.99981838464736938,
        0.99981838464736938,
        3.5118176811010926e-07
      ],
      "min": [
        -0.99904239177703857,
        0.01906164363026619,
        -2.5531829805913731e-07
      ],
      "type": "VEC3"
    },
    {
      "bufferView": 3,
      "componentType": 5126,
      "count": 200,
      "max": [
        -0.01906164363026619,
        0.99981838464736938,
        5.8669113675319934e-14,
        1
      ],
      "min": [
        -0.99981838464736938,
        -0.99904239177703857,
        -3.1308184262343955e-14,
        1
      ],
      "type": "VEC4"
    },
    {
      "bufferView": 1,
      "componentType": 5126,
      "count": 200,
      "max": [
        1,
        1
      ],
      "min": [
        0,
        0
      ],
      "type": "VEC2"
    },
    {
      "bufferView": 0,
      "componentType": 5125,
      "count": 300,
      "max": [
        199
      ],
      "min": [
        0
      ],
      "type": "SCALAR"
    },
    {
      "bufferView": 2,
      "byteOffset": 4800,
      "componentType": 5126,
      "count": 200,
      "max": [
        0.52271360158920288,
        3.1083672046661377,
        1.089991569519043
      ],
      "min": [
        -3.8484318256378174,
        -1.3183448314666748,
        0
      ],
      "type": "VEC3"
    },
    {
      "bufferView": 2,
      "byteOffset": 7200,
      "componentType": 5126,
      "count": 200,
      "max": [
        1,
        0.99802678823471069,
        2.0067527373157645e-07
      ],
      "min": [
        0,
        -1,
        -2.4933427766882232e-07
      ],
      "type": "VEC3"
    },
    {
      "bufferView": 3,
      "byteOffset": 3200,
      "componentType": 5126,
      "count": 200,
      "max": [
        1,
        1,
        2.0281876967286581e-14,
        1
      ],
      "min": [
        -0.99802678823471069,
        0,
        -2.9334567002055334e-14,
        1
      ],
      "type": "VEC4"
    },
    {
      "bufferView": 1,
      "byteOffset": 1600,
      "componentType": 5126,
      "count": 200,
      "max": [
        1,
        1
      ],
      "min": [
        0,
        0
      ],
      "type": "VEC2"
    },
    {
      "bufferView": 0,
      "byteOffset": 1200,
      "componentType": 5125,
      "count": 300,
      "max": [
        199
      ],
      "min": [
        0
      ],
      "type": "SCALAR"
    }
  ],
  "asset": {
    "extras": {
      "author": "Somersby (https://sketchfab.com/Somersby)",
      "license": "CC-BY-NC-4.0 (http://creativecommons.org/licenses/by-nc/4.0/)",
      "source": "https://sketchfab.com/models/e509215301d34356b75e66dbd0d58bf4",
      "title": "Plant Shrub"
    },
    "generator": "Sketchfab-4.28.3",
    "version": "2.0"
  },
  "bufferViews": [
    {
      "buffer": 0,
      "byteLength": 2400,
      "byteOffset": 0,
      "name": "floatBufferViews",
      "target": 34963
    },
    {
      "buffer": 0,
      "byteLength": 3200,
      "byteOffset": 2400,
      "byteStride": 8,
      "name": "floatBufferViews",
      "target": 34962
    },
    {
      "buffer": 0,
      "byteLength": 9600,
      "byteOffset": 5600,
      "byteStride": 12,
      "name": "floatBufferViews",
      "target": 34962
    },
    {
      "buffer": 0,
      "byteLength": 6400,
      "byteOffset": 15200,
      "byteStride": 16,
      "name": "floatBufferViews",
      "target": 34962
    }
  ],
  "buffers": [
    {
      "byteLength": 21600,
      "uri": "scene.bin"
    }
  ],
  "images": [
    {
      "uri": "textures/red-baron-grass-ornamental-Va7qqJC-600_baseColor.png"
    }
  ],
  "materials": [
    {
      "alphaCutoff": 0.60537347559999999,
      "alphaMode": "MASK",
      "doubleSided": true,
      "emissiveFactor": [
        0,
        0,
        0
      ],
      "name": "red-baron-grass-ornamental-Va7qqJC-600",
      "pbrMetallicRoughness": {
        "baseColorFactor": [
          1,
          1,
          1,
          1
        ],
        "baseColorTexture": {
          "index": 0,
          "texCoord": 0
        },
        "metallicFactor": 0,
        "roughnessFactor": 0.95770514949999996
      }
    }
  ],
  "meshes": [
    {
      "name": "red-baron-grass-ornamental-Va7qqJC-600.001_red-baron-grass-ornamental-Va7qqJC-600_0",
      "primitives": [
        {
          "attributes": {
            "NORMAL": 1,
            "POSITION": 0,
            "TANGENT": 2,
            "TEXCOORD_0": 3
          },
          "indices": 4,
          "material": 0,
          "mode": 4
        }
      ]
    },
    {
      "name": "red-baron-grass-ornamental-Va7qqJC-600_red-baron-grass-ornamental-Va7qqJC-600_0",
      "primitives": [
        {
          "attributes": {
            "NORMAL": 6,
            "POSITION": 5,
            "TANGENT": 7,
            "TEXCOORD_0": 8
          },
          "indices": 9,
          "material": 0,
          "mode": 4
        }
      ]
    }
  ],
  "nodes": [
    {
      "children": [
        1
      ],
      "name": "RootNode (gltf orientation matrix)",
      "rotation": [
        -0.70710678118654746,
        -0,
        -0,
        0.70710678118654757
      ]
    },
    {
      "children": [
        2
      ],
      "name": "RootNode (model correction matrix)"
    },
    {
      "children": [
        3
      ],
      "matrix": [
        1,
        0,
        0,
        0,
        0,
        0,
        1,
        0,
        0,
        -1,
        0,
        0,
        0,
        0,
        0,
        1
      ],
      "name": "Grass.fbx"
    },
    {
      "children": [
        4,
        6
      ],
      "name": "RootNode"
    },
    {
      "children": [
        5
      ],
      "matrix": [
        100,
        0,
        0,
        0,
        0,
        -1.6292067939183141e-05,
        -99.999999999998678,
        0,
        0,
        99.999999999998678,
        -1.6292067939183141e-05,
        0,
        183.7110595703125,
        0,
        86.272132873535156,
        1
      ],
      "name": "red-baron-grass-ornamental-Va7qqJC-600.001"
    },
    {
      "mesh": 0,
      "name": "red-baron-grass-ornamental-Va7qqJC-600.001_red-baron-grass-ornamental-Va7qqJC-600_0"
    },
    {
      "children": [
        7
      ],
      "matrix": [
        100,
        0,
        0,
        0,
        0,
        -1.6292067939183141e-05,
        -99.999999999998678,
        0,
        0,
        99.999999999998678,
        -1.6292067939183141e-05,
        0,
        183.7110595703125,
        0,
        86.272132873535156,
        1
      ],
      "name": "red-baron-grass-ornamental-Va7qqJC-600"
    },
    {
      "mesh": 1,
      "name": "red-baron-grass-ornamental-Va7qqJC-600_red-baron-grass-ornamental-Va7qqJC-600_0"
    }
  ],
  "samplers": [
    {
      "magFilter": 9729,
      "minFilter": 9987,
      "wrapS": 10497,
      "wrapT": 10497
    }
  ],
  "scene": 0,
  "scenes": [
    {
      "name": "OSG_Scene",
      "nodes": [
        0
      ]
    }
  ],
  "textures": [
    {
      "sampler": 0,
      "source": 0
    }
  ]
}

